REM DIRINDEX 1\5,1\2\6,1\2\7,1\3\8,1\3\9,1\4\10,1\4\11,1\4\12
REM DIRNAME folder01,folder02,folder03,folder04,folder05,folder06,folder07,folder08,folder09,folder10,folder11,folder12
TITLE ""
FILE "EJE_DB3000_5th_5C_14.mp3" MP3
  TRACK 01 AUDIO
    TITLE "0:"
    INDEX 01 00:00:00
  TRACK 02 AUDIO
    TITLE "10:cjc026_10653"
    INDEX 01 00:00:05
  TRACK 03 AUDIO
    TITLE "0:"
    INDEX 01 00:01:03
  TRACK 04 AUDIO
    TITLE "11:cjc026_10654"
    INDEX 01 00:01:28
  TRACK 05 AUDIO
    TITLE "0:"
    INDEX 01 00:02:28
  TRACK 06 AUDIO
    TITLE "12:cjc026_10655"
    INDEX 01 00:02:53
  TRACK 07 AUDIO
    TITLE "0:"
    INDEX 01 00:03:51
  TRACK 08 AUDIO
    TITLE "10:cjc026_10656"
    INDEX 01 00:04:03
  TRACK 09 AUDIO
    TITLE "0:"
    INDEX 01 00:05:07
  TRACK 10 AUDIO
    TITLE "11:cjc026_10657"
    INDEX 01 00:05:32
  TRACK 11 AUDIO
    TITLE "0:"
    INDEX 01 00:06:35
  TRACK 12 AUDIO
    TITLE "12:cjc026_10658"
    INDEX 01 00:06:61
  TRACK 13 AUDIO
    TITLE "0:"
    INDEX 01 00:07:64
  TRACK 14 AUDIO
    TITLE "10:cjc026_10659"
    INDEX 01 00:08:15
  TRACK 15 AUDIO
    TITLE "0:"
    INDEX 01 00:09:26
  TRACK 16 AUDIO
    TITLE "11:cjc026_10660"
    INDEX 01 00:09:49
  TRACK 17 AUDIO
    TITLE "0:"
    INDEX 01 00:10:63
  TRACK 18 AUDIO
    TITLE "12:cjc026_10661"
    INDEX 01 00:11:13
  TRACK 19 AUDIO
    TITLE "0:"
    INDEX 01 00:12:22
  TRACK 20 AUDIO
    TITLE "10:cjc026_10662"
    INDEX 01 00:12:48
  TRACK 21 AUDIO
    TITLE "0:"
    INDEX 01 00:13:43
  TRACK 22 AUDIO
    TITLE "11:cjc026_10663"
    INDEX 01 00:13:69
  TRACK 23 AUDIO
    TITLE "0:"
    INDEX 01 00:14:62
  TRACK 24 AUDIO
    TITLE "12:cjc026_10664"
    INDEX 01 00:15:15
  TRACK 25 AUDIO
    TITLE "0:"
    INDEX 01 00:16:08
  TRACK 26 AUDIO
    TITLE "10:cjc026_10665"
    INDEX 01 00:16:36
  TRACK 27 AUDIO
    TITLE "0:"
    INDEX 01 00:17:23
  TRACK 28 AUDIO
    TITLE "11:cjc026_10666"
    INDEX 01 00:17:51
  TRACK 29 AUDIO
    TITLE "0:"
    INDEX 01 00:18:41
  TRACK 30 AUDIO
    TITLE "12:cjc026_10667"
    INDEX 01 00:18:68
  TRACK 31 AUDIO
    TITLE "0:"
    INDEX 01 00:19:56
  TRACK 32 AUDIO
    TITLE "10:cjc026_10668"
    INDEX 01 00:20:08
  TRACK 33 AUDIO
    TITLE "0:"
    INDEX 01 00:21:06
  TRACK 34 AUDIO
    TITLE "11:cjc026_10669"
    INDEX 01 00:21:33
  TRACK 35 AUDIO
    TITLE "0:"
    INDEX 01 00:22:36
  TRACK 36 AUDIO
    TITLE "12:cjc026_10670"
    INDEX 01 00:22:64
  TRACK 37 AUDIO
    TITLE "0:"
    INDEX 01 00:23:63
  TRACK 38 AUDIO
    TITLE "10:cjc026_10671"
    INDEX 01 00:24:14
  TRACK 39 AUDIO
    TITLE "0:"
    INDEX 01 00:25:15
  TRACK 40 AUDIO
    TITLE "11:cjc026_10672"
    INDEX 01 00:25:46
  TRACK 41 AUDIO
    TITLE "0:"
    INDEX 01 00:26:64
  TRACK 42 AUDIO
    TITLE "12:cjc026_10673"
    INDEX 01 00:27:14
  TRACK 43 AUDIO
    TITLE "0:"
    INDEX 01 00:28:15
  TRACK 44 AUDIO
    TITLE "10:cjc026_10674"
    INDEX 01 00:28:47
  TRACK 45 AUDIO
    TITLE "0:"
    INDEX 01 00:29:34
  TRACK 46 AUDIO
    TITLE "11:cjc026_10675"
    INDEX 01 00:29:64
  TRACK 47 AUDIO
    TITLE "0:"
    INDEX 01 00:30:71
  TRACK 48 AUDIO
    TITLE "12:cjc026_10676"
    INDEX 01 00:31:22
  TRACK 49 AUDIO
    TITLE "0:"
    INDEX 01 00:32:09
  TRACK 50 AUDIO
    TITLE "10:cjc026_10677"
    INDEX 01 00:32:39
  TRACK 51 AUDIO
    TITLE "0:"
    INDEX 01 00:33:24
  TRACK 52 AUDIO
    TITLE "11:cjc026_10678"
    INDEX 01 00:33:54
  TRACK 53 AUDIO
    TITLE "0:"
    INDEX 01 00:34:57
  TRACK 54 AUDIO
    TITLE "12:cjc026_10679"
    INDEX 01 00:35:10
  TRACK 55 AUDIO
    TITLE "0:"
    INDEX 01 00:35:70
  TRACK 56 AUDIO
    TITLE "10:cjc026_10680"
    INDEX 01 00:36:25
  TRACK 57 AUDIO
    TITLE "0:"
    INDEX 01 00:37:22
  TRACK 58 AUDIO
    TITLE "11:cjc026_10681"
    INDEX 01 00:37:48
  TRACK 59 AUDIO
    TITLE "0:"
    INDEX 01 00:38:45
  TRACK 60 AUDIO
    TITLE "12:cjc026_10682"
    INDEX 01 00:38:73
  TRACK 61 AUDIO
    TITLE "0:"
    INDEX 01 00:39:68
  TRACK 62 AUDIO
    TITLE "10:cjc026_10683"
    INDEX 01 00:40:19
  TRACK 63 AUDIO
    TITLE "0:"
    INDEX 01 00:41:10
  TRACK 64 AUDIO
    TITLE "11:cjc026_10684"
    INDEX 01 00:41:38
  TRACK 65 AUDIO
    TITLE "0:"
    INDEX 01 00:42:27
  TRACK 66 AUDIO
    TITLE "12:cjc026_10685"
    INDEX 01 00:42:55
  TRACK 67 AUDIO
    TITLE "0:"
    INDEX 01 00:43:44
  TRACK 68 AUDIO
    TITLE "10:cjc026_10686"
    INDEX 01 00:43:72
  TRACK 69 AUDIO
    TITLE "0:"
    INDEX 01 00:45:00
  TRACK 70 AUDIO
    TITLE "11:cjc026_10687"
    INDEX 01 00:45:28
  TRACK 71 AUDIO
    TITLE "0:"
    INDEX 01 00:46:35
  TRACK 72 AUDIO
    TITLE "12:cjc026_10688"
    INDEX 01 00:46:60
  TRACK 73 AUDIO
    TITLE "0:"
    INDEX 01 00:47:64
  TRACK 74 AUDIO
    TITLE "10:cjc026_10689"
    INDEX 01 00:48:14
  TRACK 75 AUDIO
    TITLE "0:"
    INDEX 01 00:49:18
  TRACK 76 AUDIO
    TITLE "11:cjc026_10690"
    INDEX 01 00:49:43
  TRACK 77 AUDIO
    TITLE "0:"
    INDEX 01 00:50:56
  TRACK 78 AUDIO
    TITLE "12:cjc026_10691"
    INDEX 01 00:51:05
  TRACK 79 AUDIO
    TITLE "0:"
    INDEX 01 00:52:08
  TRACK 80 AUDIO
    TITLE "10:cjc026_10692"
    INDEX 01 00:52:34
  TRACK 81 AUDIO
    TITLE "0:"
    INDEX 01 00:53:41
  TRACK 82 AUDIO
    TITLE "11:cjc026_10693"
    INDEX 01 00:53:66
  TRACK 83 AUDIO
    TITLE "0:"
    INDEX 01 00:54:72
  TRACK 84 AUDIO
    TITLE "12:cjc026_10694"
    INDEX 01 00:55:20
  TRACK 85 AUDIO
    TITLE "0:"
    INDEX 01 00:56:29
  TRACK 86 AUDIO
    TITLE "10:cjc026_10695"
    INDEX 01 00:56:55
  TRACK 87 AUDIO
    TITLE "0:"
    INDEX 01 00:57:43
  TRACK 88 AUDIO
    TITLE "11:cjc026_10696"
    INDEX 01 00:57:70
  TRACK 89 AUDIO
    TITLE "0:"
    INDEX 01 00:58:73
  TRACK 90 AUDIO
    TITLE "12:cjc026_10697"
    INDEX 01 00:59:24
  TRACK 91 AUDIO
    TITLE "0:"
    INDEX 01 01:00:15
